<svg id="7b8e159e-e5e2-4c62-9167-dae90c0d4e89" data-name="Layer 1" xmlns="http://www.w3.org/2000/svg" viewBox="0 0 64.11 60.63"><defs><style>.\39 2497151-5d4c-4687-aec1-3dc70c5ea2b9{fill:#174e74;}.\31 745b6e7-d53f-4f18-aefb-ba2eb8f027cc,.\39 2497151-5d4c-4687-aec1-3dc70c5ea2b9,.b83c910b-d94f-4560-b3ec-f61d6ca6f604,.e713777e-49e1-4791-8a3a-599725e4cff8,.ea5364be-56c4-4340-9cea-f5b7c1f9cef6{stroke:#000;stroke-miterlimit:10;stroke-width:0.69px;}.ea5364be-56c4-4340-9cea-f5b7c1f9cef6{fill:#1476a8;}.\31 745b6e7-d53f-4f18-aefb-ba2eb8f027cc{fill:#b4b4b4;}.e713777e-49e1-4791-8a3a-599725e4cff8{fill:#8a8a8a;}.b83c910b-d94f-4560-b3ec-f61d6ca6f604{fill:#cdcdcd;}</style></defs><title>64x64_logo</title><path d="M55.34,62.28H8.55C5.69,54.51,2.8,46.83.08,39.1a4.14,4.14,0,0,1,.72-3C7.16,25.75,13.59,15.41,20.14,4.85l12-3.13c3.57,1,7.32,1.93,11,3A3.63,3.63,0,0,1,44.93,6.3c6.28,10.09,12.54,20.19,18.7,30.35a4.12,4.12,0,0,1,.14,3.08C61.26,47,58.62,54.23,56,61.46A3.05,3.05,0,0,1,55.34,62.28ZM9.53,61H54.47V47.76H9.53ZM20.72,5.81.77,38,9,45.61,31.2,8.52ZM33,8.47,55.06,45.3,63.35,38,43.42,5.81Z" transform="translate(0 -1.72)"/><polygon class="92497151-5d4c-4687-aec1-3dc70c5ea2b9" points="31.89 6.16 21.19 3.52 32 0.65 42.79 3.52 31.89 6.16"/><polygon class="92497151-5d4c-4687-aec1-3dc70c5ea2b9" points="8.66 58.69 8.66 44.81 0.94 37.73 8.66 58.69"/><polygon class="92497151-5d4c-4687-aec1-3dc70c5ea2b9" points="55.58 58.69 55.58 44.81 63.29 37.73 55.58 58.69"/><polygon class="ea5364be-56c4-4340-9cea-f5b7c1f9cef6" points="20.71 4.09 31.2 6.8 8.97 43.89 0.77 36.29 20.71 4.09"/><polygon class="ea5364be-56c4-4340-9cea-f5b7c1f9cef6" points="43.45 4.09 32.97 6.8 55.19 43.89 63.4 36.29 43.45 4.09"/><rect class="ea5364be-56c4-4340-9cea-f5b7c1f9cef6" x="9.53" y="45.09" width="44.94" height="14.2"/><polygon class="1745b6e7-d53f-4f18-aefb-ba2eb8f027cc" points="31.75 7.76 31.75 32.47 9.87 43.74 31.75 7.76"/><polygon class="e713777e-49e1-4791-8a3a-599725e4cff8" points="32 33.23 53.87 44.33 10.13 44.33 32 33.23"/><polygon class="b83c910b-d94f-4560-b3ec-f61d6ca6f604" points="32.56 7.76 32.56 32.47 54.45 43.74 32.56 7.76"/></svg>